<svg xmlns="http://www.w3.org/2000/svg" version="1.1" xmlns:xlink="http://www.w3.org/1999/xlink" xmlns:svgjs="http://svgjs.dev/svgjs" width="1000" height="1092" viewBox="0 0 1000 1092"><g transform="matrix(1,0,0,1,-0.9361244317324804,0.4421052631578277)"><svg viewBox="0 0 226 247" data-background-color="#ffffff" preserveAspectRatio="xMidYMid meet" height="1092" width="1000" xmlns="http://www.w3.org/2000/svg" xmlns:xlink="http://www.w3.org/1999/xlink"><g id="tight-bounds" transform="matrix(1,0,0,1,0.21156412157154136,-0.09999999999999432)"><svg viewBox="0 0 225.57687175685692 247.2" height="247.2" width="225.57687175685692"><g><svg viewBox="0 0 225.57687175685692 247.2" height="247.2" width="225.57687175685692"><g><svg viewBox="0 0 225.57687175685692 247.2" height="247.2" width="225.57687175685692"><g id="textblocktransform"><svg viewBox="0 0 225.57687175685692 247.2" height="247.2" width="225.57687175685692" id="textblock"><g><svg viewBox="0 0 225.57687175685692 247.2" height="247.2" width="225.57687175685692"><g transform="matrix(1,0,0,1,0,0)"><svg width="225.57687175685692" viewBox="0.54 -32.28 30.05 32.94" height="247.2" data-palette-color="url(#a34ecb7e-392d-4581-a9dd-df636d8fd6ed)"><g class="wordmark-text-0" data-fill-palette-color="primary" id="text-0"></g></svg></g></svg></g></svg></g></svg></g></svg></g><defs></defs><mask id="8e73c165-ed7f-47c1-b3c4-cc4770b9b31d"><g id="SvgjsG1065"><svg viewBox="0 0 225.57687175685692 247.2" height="247.2" width="225.57687175685692"><g><svg viewBox="0 0 225.57687175685692 247.2" height="247.2" width="225.57687175685692"><g><svg viewBox="0 0 225.57687175685692 247.2" height="247.2" width="225.57687175685692"><g id="SvgjsG1064"><svg viewBox="0 0 225.57687175685692 247.2" height="247.2" width="225.57687175685692" id="SvgjsSvg1063"><g><svg viewBox="0 0 225.57687175685692 247.2" height="247.2" width="225.57687175685692"><g transform="matrix(1,0,0,1,0,0)"><svg width="225.57687175685692" viewBox="0.54 -32.28 30.05 32.94" height="247.2" data-palette-color="url(#a34ecb7e-392d-4581-a9dd-df636d8fd6ed)"><g class="wordmark-text-0" data-fill-palette-color="primary" id="SvgjsG1062"><path d="M16.6-9.72L16.6-9.72Q16.85-9.72 17.04-9.84L17.04-9.84 17.04-12.06Q18.7-13.18 21.69-13.89 24.68-14.6 27.51-14.6L27.51-14.6Q28.81-13.28 29.68-10.66 30.54-8.03 30.59-5.91L30.59-5.91Q30.1-4.93 28.94-3.81 27.78-2.69 26.15-1.73L26.15-1.73Q22.09 0.66 16.85 0.66L16.85 0.66Q9.33 0.66 5-3.71L5-3.71Q0.54-8.13 0.54-15.95 0.54-23.78 5.42-28.25L5.42-28.25Q7.57-30.25 10.42-31.26 13.28-32.28 16.43-32.28L16.43-32.28Q22.58-32.28 26.51-29.3 30.44-26.32 30.44-21.95L30.44-21.95Q30.44-18.65 28.42-17.08 26.39-15.5 22.92-15.5L22.92-15.5Q21.02-15.5 19.09-16.44 17.16-17.38 16.8-18.21L16.8-18.21Q16.8-20.21 16.87-21.36L16.87-21.36Q16.82-21.39 16.7-21.39L16.7-21.39 16.53-21.39Q16.16-21.39 15.95-21.18 15.75-20.97 15.59-20.31 15.43-19.65 15.43-16.72L15.43-16.72Q15.43-9.72 16.6-9.72Z" fill="white"></path></g></svg></g></svg></g></svg></g></svg></g></svg></g><defs><mask></mask></defs></svg></g></mask><linearGradient x1="0" x2="1" y1="0.578" y2="0.595" id="a34ecb7e-392d-4581-a9dd-df636d8fd6ed"><stop stop-color="#6ee2f5" offset="0"></stop><stop stop-color="#6454f0" offset="1"></stop></linearGradient><rect width="225.57687175685692" height="247.2" fill="url(#a34ecb7e-392d-4581-a9dd-df636d8fd6ed)" mask="url(#8e73c165-ed7f-47c1-b3c4-cc4770b9b31d)" data-fill-palette-color="primary"></rect></svg><rect width="225.57687175685692" height="247.2" fill="none" stroke="none" visibility="hidden"></rect></g></svg></g></svg>