<svg xmlns="http://www.w3.org/2000/svg" version="1.1" xmlns:xlink="http://www.w3.org/1999/xlink" xmlns:svgjs="http://svgjs.dev/svgjs" width="1000" height="1739" viewBox="0 0 1000 1739"><g transform="matrix(1,0,0,1,-1.2614473383477502,0.5318367401030173)"><svg viewBox="0 0 188 327" data-background-color="#ffffff" preserveAspectRatio="xMidYMid meet" height="1739" width="1000" xmlns="http://www.w3.org/2000/svg" xmlns:xlink="http://www.w3.org/1999/xlink"><g id="tight-bounds" transform="matrix(1,0,0,1,0.237152099609375,-0.100006103515625)"><svg viewBox="0 0 187.52569169960472 327.2" height="327.2" width="187.52569169960472"><g><svg viewBox="0 0 187.52569169960472 327.2" height="327.2" width="187.52569169960472"><g><svg viewBox="0 0 187.52569169960472 327.2" height="327.2" width="187.52569169960472"><g id="textblocktransform"><svg viewBox="0 0 187.52569169960472 327.2" height="327.2" width="187.52569169960472" id="textblock"><g><svg viewBox="0 0 187.52569169960472 327.2" height="327.2" width="187.52569169960472"><g transform="matrix(1,0,0,1,0,0)"><svg width="187.52569169960472" viewBox="2.25 -36.849998474121094 21.75 37.94999694824219" height="327.2" data-palette-color="url(#b41a991a-d86a-4509-b1c9-fb6206ff8b16)"></svg></g></svg></g></svg></g></svg></g><g></g></svg></g><defs></defs><mask id="4b3c4f07-383c-4bae-b836-6a46a20d8332"><g id="SvgjsG1003"><svg viewBox="0 0 187.52569169960472 327.2" height="327.2" width="187.52569169960472"><g><svg viewBox="0 0 187.52569169960472 327.2" height="327.2" width="187.52569169960472"><g><svg viewBox="0 0 187.52569169960472 327.2" height="327.2" width="187.52569169960472"><g id="SvgjsG1002"><svg viewBox="0 0 187.52569169960472 327.2" height="327.2" width="187.52569169960472" id="SvgjsSvg1001"><g><svg viewBox="0 0 187.52569169960472 327.2" height="327.2" width="187.52569169960472"><g transform="matrix(1,0,0,1,0,0)"><svg width="187.52569169960472" viewBox="2.25 -36.849998474121094 21.75 37.94999694824219" height="327.2" data-palette-color="url(#b41a991a-d86a-4509-b1c9-fb6206ff8b16)"><path d="M11.95-3.1L21.25-3.5 22.85 0.3 10.8 1.1 3.05-3.95 2.25-26.45 8.1-34.9 17.8-36.85 24-32.65 17.8-24.45 16.3-25.6 19.35-31.4 16.65-33.8 10.05-32.25 7.35-25.25 7.35-5.85 11.95-3.1Z" opacity="1" transform="matrix(1,0,0,1,0,0)" fill="white" class="wordmark-text-0" id="SvgjsPath1000"></path></svg></g></svg></g></svg></g></svg></g><g></g></svg></g><defs><mask></mask></defs></svg></g></mask><linearGradient x1="0" x2="1" y1="0.578" y2="0.595" id="b41a991a-d86a-4509-b1c9-fb6206ff8b16"><stop stop-color="#6ee2f5" offset="0"></stop><stop stop-color="#6454f0" offset="1"></stop></linearGradient><rect width="187.52569580078125" height="327.20001220703125" fill="url(#b41a991a-d86a-4509-b1c9-fb6206ff8b16)" mask="url(#4b3c4f07-383c-4bae-b836-6a46a20d8332)" data-fill-palette-color="primary"></rect></svg><rect width="187.52569169960472" height="327.2" fill="none" stroke="none" visibility="hidden"></rect></g></svg></g></svg>